<?xml version="1.0" encoding="UTF-8"?>
<svg id="Layer_1" data-name="Layer 1" xmlns="http://www.w3.org/2000/svg" version="1.1" xmlns:xlink="http://www.w3.org/1999/xlink" viewBox="0 0 592.19 169.39">
  <defs>
    <style>
      .cls-1 {
        clip-path: url(#clippath-2);
      }

      .cls-2 {
        clip-path: url(#clippath-6);
      }

      .cls-3 {
        fill: none;
      }

      .cls-3, .cls-4 {
        stroke-width: 0px;
      }

      .cls-5 {
        clip-path: url(#clippath-7);
      }

      .cls-6 {
        clip-path: url(#clippath-1);
      }

      .cls-7 {
        clip-path: url(#clippath-4);
      }

      .cls-4 {
        fill: #fed700;
      }

      .cls-8 {
        clip-path: url(#clippath);
      }

      .cls-9 {
        clip-path: url(#clippath-3);
      }

      .cls-10 {
        clip-path: url(#clippath-5);
      }
    </style>
    <clipPath id="clippath">
      <polygon class="cls-3" points="8.71 8.4 .76 .45 .76 8.4 8.71 8.4"/>
    </clipPath>
    <clipPath id="clippath-1">
      <polygon class="cls-3" points="8.71 8.4 .76 .45 8.71 .45 8.71 8.4"/>
    </clipPath>
    <clipPath id="clippath-2">
      <polygon class="cls-3" points="583.83 8.4 591.77 .45 583.83 .45 583.83 8.4"/>
    </clipPath>
    <clipPath id="clippath-3">
      <polygon class="cls-3" points="583.83 8.4 591.77 .45 591.77 8.4 583.83 8.4"/>
    </clipPath>
    <clipPath id="clippath-4">
      <polygon class="cls-3" points="583.83 161.3 591.77 169.25 591.77 161.3 583.83 161.3"/>
    </clipPath>
    <clipPath id="clippath-5">
      <polygon class="cls-3" points="583.83 161.3 591.77 169.25 583.83 169.25 583.83 161.3"/>
    </clipPath>
    <clipPath id="clippath-6">
      <polygon class="cls-3" points="8.71 161.3 .76 169.25 8.71 169.25 8.71 161.3"/>
    </clipPath>
    <clipPath id="clippath-7">
      <polygon class="cls-3" points="8.71 161.3 .76 169.25 .76 161.3 8.71 161.3"/>
    </clipPath>
  </defs>
  <g id="En_Tablet_-_bg_logo_menu_and_title" data-name="En Tablet - bg logo, menu and title">
    <rect class="cls-4" x="4.74" y="4.42" width="583.06" height="160.85"/>
    <g>
      <polygon class="cls-4" points="6.97 154.93 8.71 154.93 8.71 161.3 6.97 161.3 6.97 158.98 2.5 158.98 2.5 160.44 .76 160.44 .76 155.78 2.5 155.78 2.5 157.24 6.97 157.24 6.97 154.93"/>
      <polygon class="cls-4" points="6.97 148.56 8.71 148.56 8.71 154.93 6.97 154.93 6.97 152.61 2.5 152.61 2.5 154.07 .76 154.07 .76 149.41 2.5 149.41 2.5 150.87 6.97 150.87 6.97 148.56"/>
      <polygon class="cls-4" points="6.97 142.19 8.71 142.19 8.71 148.56 6.97 148.56 6.97 146.24 2.5 146.24 2.5 147.69 .76 147.69 .76 143.04 2.5 143.04 2.5 144.49 6.97 144.49 6.97 142.19"/>
      <polygon class="cls-4" points="6.97 135.82 8.71 135.82 8.71 142.19 6.97 142.19 6.97 139.87 2.5 139.87 2.5 141.32 .76 141.32 .76 136.66 2.5 136.66 2.5 138.12 6.97 138.12 6.97 135.82"/>
      <polygon class="cls-4" points="6.97 129.45 8.71 129.45 8.71 135.82 6.97 135.82 6.97 133.49 2.5 133.49 2.5 134.95 .76 134.95 .76 130.29 2.5 130.29 2.5 131.75 6.97 131.75 6.97 129.45"/>
      <polygon class="cls-4" points="6.97 123.08 8.71 123.08 8.71 129.45 6.97 129.45 6.97 127.12 2.5 127.12 2.5 128.58 .76 128.58 .76 123.92 2.5 123.92 2.5 125.38 6.97 125.38 6.97 123.08"/>
      <polygon class="cls-4" points="6.97 116.7 8.71 116.7 8.71 123.08 6.97 123.08 6.97 120.75 2.5 120.75 2.5 122.21 .76 122.21 .76 117.55 2.5 117.55 2.5 119.01 6.97 119.01 6.97 116.7"/>
      <polygon class="cls-4" points="6.97 110.33 8.71 110.33 8.71 116.7 6.97 116.7 6.97 114.38 2.5 114.38 2.5 115.84 .76 115.84 .76 111.18 2.5 111.18 2.5 112.64 6.97 112.64 6.97 110.33"/>
      <polygon class="cls-4" points="6.97 103.96 8.71 103.96 8.71 110.33 6.97 110.33 6.97 108.01 2.5 108.01 2.5 109.47 .76 109.47 .76 104.81 2.5 104.81 2.5 106.27 6.97 106.27 6.97 103.96"/>
      <polygon class="cls-4" points="6.97 97.59 8.71 97.59 8.71 103.96 6.97 103.96 6.97 101.64 2.5 101.64 2.5 103.1 .76 103.1 .76 98.44 2.5 98.44 2.5 99.9 6.97 99.9 6.97 97.59"/>
      <polygon class="cls-4" points="6.97 91.22 8.71 91.22 8.71 97.59 6.97 97.59 6.97 95.27 2.5 95.27 2.5 96.73 .76 96.73 .76 92.07 2.5 92.07 2.5 93.52 6.97 93.52 6.97 91.22"/>
      <polygon class="cls-4" points="6.97 84.85 8.71 84.85 8.71 91.22 6.97 91.22 6.97 88.9 2.5 88.9 2.5 90.35 .76 90.35 .76 85.7 2.5 85.7 2.5 87.15 6.97 87.15 6.97 84.85"/>
      <polygon class="cls-4" points="6.97 78.48 8.71 78.48 8.71 84.85 6.97 84.85 6.97 82.53 2.5 82.53 2.5 83.98 .76 83.98 .76 79.32 2.5 79.32 2.5 80.78 6.97 80.78 6.97 78.48"/>
      <polygon class="cls-4" points="6.97 72.11 8.71 72.11 8.71 78.48 6.97 78.48 6.97 76.15 2.5 76.15 2.5 77.61 .76 77.61 .76 72.95 2.5 72.95 2.5 74.41 6.97 74.41 6.97 72.11"/>
      <polygon class="cls-4" points="6.97 65.74 8.71 65.74 8.71 72.11 6.97 72.11 6.97 69.78 2.5 69.78 2.5 71.24 .76 71.24 .76 66.58 2.5 66.58 2.5 68.04 6.97 68.04 6.97 65.74"/>
      <polygon class="cls-4" points="6.97 59.36 8.71 59.36 8.71 65.74 6.97 65.74 6.97 63.41 2.5 63.41 2.5 64.87 .76 64.87 .76 60.21 2.5 60.21 2.5 61.67 6.97 61.67 6.97 59.36"/>
      <polygon class="cls-4" points="6.97 52.99 8.71 52.99 8.71 59.36 6.97 59.36 6.97 57.04 2.5 57.04 2.5 58.5 .76 58.5 .76 53.84 2.5 53.84 2.5 55.3 6.97 55.3 6.97 52.99"/>
      <polygon class="cls-4" points="6.97 46.62 8.71 46.62 8.71 52.99 6.97 52.99 6.97 50.67 2.5 50.67 2.5 52.13 .76 52.13 .76 47.47 2.5 47.47 2.5 48.93 6.97 48.93 6.97 46.62"/>
      <polygon class="cls-4" points="6.97 40.25 8.71 40.25 8.71 46.62 6.97 46.62 6.97 44.3 2.5 44.3 2.5 45.76 .76 45.76 .76 41.1 2.5 41.1 2.5 42.56 6.97 42.56 6.97 40.25"/>
      <polygon class="cls-4" points="6.97 33.88 8.71 33.88 8.71 40.25 6.97 40.25 6.97 37.93 2.5 37.93 2.5 39.39 .76 39.39 .76 34.73 2.5 34.73 2.5 36.18 6.97 36.18 6.97 33.88"/>
      <polygon class="cls-4" points="6.97 27.51 8.71 27.51 8.71 33.88 6.97 33.88 6.97 31.56 2.5 31.56 2.5 33.01 .76 33.01 .76 28.36 2.5 28.36 2.5 29.81 6.97 29.81 6.97 27.51"/>
      <polygon class="cls-4" points="6.97 21.14 8.71 21.14 8.71 27.51 6.97 27.51 6.97 25.19 2.5 25.19 2.5 26.64 .76 26.64 .76 21.98 2.5 21.98 2.5 23.44 6.97 23.44 6.97 21.14"/>
      <polygon class="cls-4" points="6.97 14.77 8.71 14.77 8.71 21.14 6.97 21.14 6.97 18.81 2.5 18.81 2.5 20.27 .76 20.27 .76 15.61 2.5 15.61 2.5 17.07 6.97 17.07 6.97 14.77"/>
      <polygon class="cls-4" points="6.97 8.4 8.71 8.4 8.71 14.77 6.97 14.77 6.97 12.44 2.5 12.44 2.5 13.9 .76 13.9 .76 9.24 2.5 9.24 2.5 10.7 6.97 10.7 6.97 8.4"/>
      <polygon class="cls-4" points="15.03 6.66 15.03 8.4 8.71 8.4 8.71 6.66 11.01 6.66 11.01 2.19 9.57 2.19 9.57 .45 14.19 .45 14.19 2.19 12.74 2.19 12.74 6.66 15.03 6.66"/>
      <polygon class="cls-4" points="21.35 6.66 21.35 8.4 15.03 8.4 15.03 6.66 17.33 6.66 17.33 2.19 15.89 2.19 15.89 .45 20.51 .45 20.51 2.19 19.06 2.19 19.06 6.66 21.35 6.66"/>
      <polygon class="cls-4" points="27.67 6.66 27.67 8.4 21.35 8.4 21.35 6.66 23.65 6.66 23.65 2.19 22.21 2.19 22.21 .45 26.83 .45 26.83 2.19 25.38 2.19 25.38 6.66 27.67 6.66"/>
      <polygon class="cls-4" points="33.99 6.66 33.99 8.4 27.67 8.4 27.67 6.66 29.97 6.66 29.97 2.19 28.53 2.19 28.53 .45 33.15 .45 33.15 2.19 31.7 2.19 31.7 6.66 33.99 6.66"/>
      <polygon class="cls-4" points="40.31 6.66 40.31 8.4 33.99 8.4 33.99 6.66 36.29 6.66 36.29 2.19 34.85 2.19 34.85 .45 39.47 .45 39.47 2.19 38.02 2.19 38.02 6.66 40.31 6.66"/>
      <polygon class="cls-4" points="46.63 6.66 46.63 8.4 40.31 8.4 40.31 6.66 42.61 6.66 42.61 2.19 41.17 2.19 41.17 .45 45.79 .45 45.79 2.19 44.34 2.19 44.34 6.66 46.63 6.66"/>
      <polygon class="cls-4" points="52.95 6.66 52.95 8.4 46.63 8.4 46.63 6.66 48.93 6.66 48.93 2.19 47.49 2.19 47.49 .45 52.11 .45 52.11 2.19 50.66 2.19 50.66 6.66 52.95 6.66"/>
      <polygon class="cls-4" points="59.27 6.66 59.27 8.4 52.95 8.4 52.95 6.66 55.25 6.66 55.25 2.19 53.81 2.19 53.81 .45 58.43 .45 58.43 2.19 56.98 2.19 56.98 6.66 59.27 6.66"/>
      <polygon class="cls-4" points="65.59 6.66 65.59 8.4 59.27 8.4 59.27 6.66 61.57 6.66 61.57 2.19 60.13 2.19 60.13 .45 64.75 .45 64.75 2.19 63.3 2.19 63.3 6.66 65.59 6.66"/>
      <polygon class="cls-4" points="71.91 6.66 71.91 8.4 65.59 8.4 65.59 6.66 67.89 6.66 67.89 2.19 66.45 2.19 66.45 .45 71.07 .45 71.07 2.19 69.62 2.19 69.62 6.66 71.91 6.66"/>
      <polygon class="cls-4" points="78.23 6.66 78.23 8.4 71.91 8.4 71.91 6.66 74.21 6.66 74.21 2.19 72.77 2.19 72.77 .45 77.39 .45 77.39 2.19 75.94 2.19 75.94 6.66 78.23 6.66"/>
      <polygon class="cls-4" points="84.55 6.66 84.55 8.4 78.23 8.4 78.23 6.66 80.53 6.66 80.53 2.19 79.09 2.19 79.09 .45 83.71 .45 83.71 2.19 82.26 2.19 82.26 6.66 84.55 6.66"/>
      <polygon class="cls-4" points="90.87 6.66 90.87 8.4 84.55 8.4 84.55 6.66 86.85 6.66 86.85 2.19 85.41 2.19 85.41 .45 90.03 .45 90.03 2.19 88.58 2.19 88.58 6.66 90.87 6.66"/>
      <polygon class="cls-4" points="97.19 6.66 97.19 8.4 90.87 8.4 90.87 6.66 93.17 6.66 93.17 2.19 91.73 2.19 91.73 .45 96.35 .45 96.35 2.19 94.9 2.19 94.9 6.66 97.19 6.66"/>
      <polygon class="cls-4" points="103.51 6.66 103.51 8.4 97.19 8.4 97.19 6.66 99.49 6.66 99.49 2.19 98.05 2.19 98.05 .45 102.67 .45 102.67 2.19 101.22 2.19 101.22 6.66 103.51 6.66"/>
      <polygon class="cls-4" points="109.83 6.66 109.83 8.4 103.51 8.4 103.51 6.66 105.81 6.66 105.81 2.19 104.37 2.19 104.37 .45 108.99 .45 108.99 2.19 107.54 2.19 107.54 6.66 109.83 6.66"/>
      <polygon class="cls-4" points="116.15 6.66 116.15 8.4 109.83 8.4 109.83 6.66 112.13 6.66 112.13 2.19 110.69 2.19 110.69 .45 115.31 .45 115.31 2.19 113.86 2.19 113.86 6.66 116.15 6.66"/>
      <polygon class="cls-4" points="122.47 6.66 122.47 8.4 116.15 8.4 116.15 6.66 118.45 6.66 118.45 2.19 117.01 2.19 117.01 .45 121.63 .45 121.63 2.19 120.18 2.19 120.18 6.66 122.47 6.66"/>
      <polygon class="cls-4" points="128.79 6.66 128.79 8.4 122.47 8.4 122.47 6.66 124.77 6.66 124.77 2.19 123.33 2.19 123.33 .45 127.95 .45 127.95 2.19 126.5 2.19 126.5 6.66 128.79 6.66"/>
      <polygon class="cls-4" points="135.11 6.66 135.11 8.4 128.79 8.4 128.79 6.66 131.09 6.66 131.09 2.19 129.65 2.19 129.65 .45 134.27 .45 134.27 2.19 132.82 2.19 132.82 6.66 135.11 6.66"/>
      <polygon class="cls-4" points="141.43 6.66 141.43 8.4 135.11 8.4 135.11 6.66 137.41 6.66 137.41 2.19 135.97 2.19 135.97 .45 140.59 .45 140.59 2.19 139.14 2.19 139.14 6.66 141.43 6.66"/>
      <polygon class="cls-4" points="147.75 6.66 147.75 8.4 141.43 8.4 141.43 6.66 143.73 6.66 143.73 2.19 142.29 2.19 142.29 .45 146.91 .45 146.91 2.19 145.46 2.19 145.46 6.66 147.75 6.66"/>
      <polygon class="cls-4" points="154.07 6.66 154.07 8.4 147.75 8.4 147.75 6.66 150.05 6.66 150.05 2.19 148.61 2.19 148.61 .45 153.23 .45 153.23 2.19 151.78 2.19 151.78 6.66 154.07 6.66"/>
      <polygon class="cls-4" points="160.39 6.66 160.39 8.4 154.07 8.4 154.07 6.66 156.37 6.66 156.37 2.19 154.93 2.19 154.93 .45 159.55 .45 159.55 2.19 158.1 2.19 158.1 6.66 160.39 6.66"/>
      <polygon class="cls-4" points="166.71 6.66 166.71 8.4 160.39 8.4 160.39 6.66 162.69 6.66 162.69 2.19 161.25 2.19 161.25 .45 165.87 .45 165.87 2.19 164.42 2.19 164.42 6.66 166.71 6.66"/>
      <polygon class="cls-4" points="173.03 6.66 173.03 8.4 166.71 8.4 166.71 6.66 169.01 6.66 169.01 2.19 167.57 2.19 167.57 .45 172.19 .45 172.19 2.19 170.74 2.19 170.74 6.66 173.03 6.66"/>
      <polygon class="cls-4" points="179.35 6.66 179.35 8.4 173.03 8.4 173.03 6.66 175.33 6.66 175.33 2.19 173.89 2.19 173.89 .45 178.51 .45 178.51 2.19 177.06 2.19 177.06 6.66 179.35 6.66"/>
      <polygon class="cls-4" points="185.67 6.66 185.67 8.4 179.35 8.4 179.35 6.66 181.65 6.66 181.65 2.19 180.21 2.19 180.21 .45 184.83 .45 184.83 2.19 183.38 2.19 183.38 6.66 185.67 6.66"/>
      <polygon class="cls-4" points="191.99 6.66 191.99 8.4 185.67 8.4 185.67 6.66 187.97 6.66 187.97 2.19 186.53 2.19 186.53 .45 191.15 .45 191.15 2.19 189.7 2.19 189.7 6.66 191.99 6.66"/>
      <polygon class="cls-4" points="198.31 6.66 198.31 8.4 191.99 8.4 191.99 6.66 194.29 6.66 194.29 2.19 192.85 2.19 192.85 .45 197.47 .45 197.47 2.19 196.02 2.19 196.02 6.66 198.31 6.66"/>
      <polygon class="cls-4" points="204.63 6.66 204.63 8.4 198.31 8.4 198.31 6.66 200.61 6.66 200.61 2.19 199.17 2.19 199.17 .45 203.79 .45 203.79 2.19 202.34 2.19 202.34 6.66 204.63 6.66"/>
      <polygon class="cls-4" points="210.95 6.66 210.95 8.4 204.63 8.4 204.63 6.66 206.93 6.66 206.93 2.19 205.49 2.19 205.49 .45 210.11 .45 210.11 2.19 208.66 2.19 208.66 6.66 210.95 6.66"/>
      <polygon class="cls-4" points="217.27 6.66 217.27 8.4 210.95 8.4 210.95 6.66 213.25 6.66 213.25 2.19 211.81 2.19 211.81 .45 216.43 .45 216.43 2.19 214.98 2.19 214.98 6.66 217.27 6.66"/>
      <polygon class="cls-4" points="223.59 6.66 223.59 8.4 217.27 8.4 217.27 6.66 219.57 6.66 219.57 2.19 218.13 2.19 218.13 .45 222.75 .45 222.75 2.19 221.3 2.19 221.3 6.66 223.59 6.66"/>
      <polygon class="cls-4" points="229.91 6.66 229.91 8.4 223.59 8.4 223.59 6.66 225.89 6.66 225.89 2.19 224.45 2.19 224.45 .45 229.07 .45 229.07 2.19 227.62 2.19 227.62 6.66 229.91 6.66"/>
      <polygon class="cls-4" points="236.23 6.66 236.23 8.4 229.91 8.4 229.91 6.66 232.21 6.66 232.21 2.19 230.77 2.19 230.77 .45 235.39 .45 235.39 2.19 233.94 2.19 233.94 6.66 236.23 6.66"/>
      <polygon class="cls-4" points="242.55 6.66 242.55 8.4 236.23 8.4 236.23 6.66 238.53 6.66 238.53 2.19 237.09 2.19 237.09 .45 241.71 .45 241.71 2.19 240.26 2.19 240.26 6.66 242.55 6.66"/>
      <polygon class="cls-4" points="248.87 6.66 248.87 8.4 242.55 8.4 242.55 6.66 244.85 6.66 244.85 2.19 243.41 2.19 243.41 .45 248.03 .45 248.03 2.19 246.58 2.19 246.58 6.66 248.87 6.66"/>
      <polygon class="cls-4" points="255.19 6.66 255.19 8.4 248.87 8.4 248.87 6.66 251.17 6.66 251.17 2.19 249.73 2.19 249.73 .45 254.35 .45 254.35 2.19 252.9 2.19 252.9 6.66 255.19 6.66"/>
      <polygon class="cls-4" points="261.51 6.66 261.51 8.4 255.19 8.4 255.19 6.66 257.49 6.66 257.49 2.19 256.05 2.19 256.05 .45 260.67 .45 260.67 2.19 259.22 2.19 259.22 6.66 261.51 6.66"/>
      <polygon class="cls-4" points="267.83 6.66 267.83 8.4 261.51 8.4 261.51 6.66 263.81 6.66 263.81 2.19 262.37 2.19 262.37 .45 266.99 .45 266.99 2.19 265.54 2.19 265.54 6.66 267.83 6.66"/>
      <polygon class="cls-4" points="274.15 6.66 274.15 8.4 267.83 8.4 267.83 6.66 270.13 6.66 270.13 2.19 268.69 2.19 268.69 .45 273.31 .45 273.31 2.19 271.86 2.19 271.86 6.66 274.15 6.66"/>
      <polygon class="cls-4" points="280.47 6.66 280.47 8.4 274.15 8.4 274.15 6.66 276.45 6.66 276.45 2.19 275.01 2.19 275.01 .45 279.63 .45 279.63 2.19 278.18 2.19 278.18 6.66 280.47 6.66"/>
      <polygon class="cls-4" points="286.79 6.66 286.79 8.4 280.47 8.4 280.47 6.66 282.77 6.66 282.77 2.19 281.33 2.19 281.33 .45 285.95 .45 285.95 2.19 284.5 2.19 284.5 6.66 286.79 6.66"/>
      <polygon class="cls-4" points="293.11 6.66 293.11 8.4 286.79 8.4 286.79 6.66 289.09 6.66 289.09 2.19 287.65 2.19 287.65 .45 292.27 .45 292.27 2.19 290.82 2.19 290.82 6.66 293.11 6.66"/>
      <polygon class="cls-4" points="299.43 6.66 299.43 8.4 293.11 8.4 293.11 6.66 295.41 6.66 295.41 2.19 293.97 2.19 293.97 .45 298.59 .45 298.59 2.19 297.14 2.19 297.14 6.66 299.43 6.66"/>
      <polygon class="cls-4" points="305.75 6.66 305.75 8.4 299.43 8.4 299.43 6.66 301.73 6.66 301.73 2.19 300.29 2.19 300.29 .45 304.91 .45 304.91 2.19 303.46 2.19 303.46 6.66 305.75 6.66"/>
      <polygon class="cls-4" points="312.07 6.66 312.07 8.4 305.75 8.4 305.75 6.66 308.05 6.66 308.05 2.19 306.61 2.19 306.61 .45 311.23 .45 311.23 2.19 309.78 2.19 309.78 6.66 312.07 6.66"/>
      <polygon class="cls-4" points="318.39 6.66 318.39 8.4 312.07 8.4 312.07 6.66 314.37 6.66 314.37 2.19 312.93 2.19 312.93 .45 317.55 .45 317.55 2.19 316.1 2.19 316.1 6.66 318.39 6.66"/>
      <polygon class="cls-4" points="324.71 6.66 324.71 8.4 318.39 8.4 318.39 6.66 320.69 6.66 320.69 2.19 319.25 2.19 319.25 .45 323.87 .45 323.87 2.19 322.42 2.19 322.42 6.66 324.71 6.66"/>
      <polygon class="cls-4" points="331.03 6.66 331.03 8.4 324.71 8.4 324.71 6.66 327.01 6.66 327.01 2.19 325.57 2.19 325.57 .45 330.19 .45 330.19 2.19 328.74 2.19 328.74 6.66 331.03 6.66"/>
      <polygon class="cls-4" points="337.35 6.66 337.35 8.4 331.03 8.4 331.03 6.66 333.33 6.66 333.33 2.19 331.89 2.19 331.89 .45 336.51 .45 336.51 2.19 335.06 2.19 335.06 6.66 337.35 6.66"/>
      <polygon class="cls-4" points="343.67 6.66 343.67 8.4 337.35 8.4 337.35 6.66 339.65 6.66 339.65 2.19 338.21 2.19 338.21 .45 342.83 .45 342.83 2.19 341.38 2.19 341.38 6.66 343.67 6.66"/>
      <polygon class="cls-4" points="349.99 6.66 349.99 8.4 343.67 8.4 343.67 6.66 345.97 6.66 345.97 2.19 344.53 2.19 344.53 .45 349.15 .45 349.15 2.19 347.7 2.19 347.7 6.66 349.99 6.66"/>
      <polygon class="cls-4" points="356.31 6.66 356.31 8.4 349.99 8.4 349.99 6.66 352.29 6.66 352.29 2.19 350.85 2.19 350.85 .45 355.47 .45 355.47 2.19 354.02 2.19 354.02 6.66 356.31 6.66"/>
      <polygon class="cls-4" points="362.63 6.66 362.63 8.4 356.31 8.4 356.31 6.66 358.61 6.66 358.61 2.19 357.17 2.19 357.17 .45 361.79 .45 361.79 2.19 360.34 2.19 360.34 6.66 362.63 6.66"/>
      <polygon class="cls-4" points="368.95 6.66 368.95 8.4 362.63 8.4 362.63 6.66 364.93 6.66 364.93 2.19 363.49 2.19 363.49 .45 368.11 .45 368.11 2.19 366.66 2.19 366.66 6.66 368.95 6.66"/>
      <polygon class="cls-4" points="375.27 6.66 375.27 8.4 368.95 8.4 368.95 6.66 371.25 6.66 371.25 2.19 369.81 2.19 369.81 .45 374.43 .45 374.43 2.19 372.98 2.19 372.98 6.66 375.27 6.66"/>
      <polygon class="cls-4" points="381.59 6.66 381.59 8.4 375.27 8.4 375.27 6.66 377.57 6.66 377.57 2.19 376.13 2.19 376.13 .45 380.75 .45 380.75 2.19 379.3 2.19 379.3 6.66 381.59 6.66"/>
      <polygon class="cls-4" points="387.91 6.66 387.91 8.4 381.59 8.4 381.59 6.66 383.89 6.66 383.89 2.19 382.45 2.19 382.45 .45 387.07 .45 387.07 2.19 385.62 2.19 385.62 6.66 387.91 6.66"/>
      <polygon class="cls-4" points="394.23 6.66 394.23 8.4 387.91 8.4 387.91 6.66 390.21 6.66 390.21 2.19 388.77 2.19 388.77 .45 393.39 .45 393.39 2.19 391.94 2.19 391.94 6.66 394.23 6.66"/>
      <polygon class="cls-4" points="400.55 6.66 400.55 8.4 394.23 8.4 394.23 6.66 396.53 6.66 396.53 2.19 395.09 2.19 395.09 .45 399.71 .45 399.71 2.19 398.26 2.19 398.26 6.66 400.55 6.66"/>
      <polygon class="cls-4" points="406.87 6.66 406.87 8.4 400.55 8.4 400.55 6.66 402.85 6.66 402.85 2.19 401.41 2.19 401.41 .45 406.03 .45 406.03 2.19 404.58 2.19 404.58 6.66 406.87 6.66"/>
      <polygon class="cls-4" points="413.19 6.66 413.19 8.4 406.87 8.4 406.87 6.66 409.17 6.66 409.17 2.19 407.73 2.19 407.73 .45 412.35 .45 412.35 2.19 410.9 2.19 410.9 6.66 413.19 6.66"/>
      <polygon class="cls-4" points="419.51 6.66 419.51 8.4 413.19 8.4 413.19 6.66 415.49 6.66 415.49 2.19 414.05 2.19 414.05 .45 418.67 .45 418.67 2.19 417.22 2.19 417.22 6.66 419.51 6.66"/>
      <polygon class="cls-4" points="425.83 6.66 425.83 8.4 419.51 8.4 419.51 6.66 421.81 6.66 421.81 2.19 420.37 2.19 420.37 .45 424.99 .45 424.99 2.19 423.54 2.19 423.54 6.66 425.83 6.66"/>
      <polygon class="cls-4" points="432.15 6.66 432.15 8.4 425.83 8.4 425.83 6.66 428.13 6.66 428.13 2.19 426.69 2.19 426.69 .45 431.31 .45 431.31 2.19 429.86 2.19 429.86 6.66 432.15 6.66"/>
      <polygon class="cls-4" points="438.47 6.66 438.47 8.4 432.15 8.4 432.15 6.66 434.45 6.66 434.45 2.19 433.01 2.19 433.01 .45 437.63 .45 437.63 2.19 436.18 2.19 436.18 6.66 438.47 6.66"/>
      <polygon class="cls-4" points="444.79 6.66 444.79 8.4 438.47 8.4 438.47 6.66 440.77 6.66 440.77 2.19 439.33 2.19 439.33 .45 443.95 .45 443.95 2.19 442.5 2.19 442.5 6.66 444.79 6.66"/>
      <polygon class="cls-4" points="451.11 6.66 451.11 8.4 444.79 8.4 444.79 6.66 447.09 6.66 447.09 2.19 445.65 2.19 445.65 .45 450.27 .45 450.27 2.19 448.82 2.19 448.82 6.66 451.11 6.66"/>
      <polygon class="cls-4" points="457.43 6.66 457.43 8.4 451.11 8.4 451.11 6.66 453.41 6.66 453.41 2.19 451.97 2.19 451.97 .45 456.59 .45 456.59 2.19 455.14 2.19 455.14 6.66 457.43 6.66"/>
      <polygon class="cls-4" points="463.75 6.66 463.75 8.4 457.43 8.4 457.43 6.66 459.73 6.66 459.73 2.19 458.29 2.19 458.29 .45 462.91 .45 462.91 2.19 461.46 2.19 461.46 6.66 463.75 6.66"/>
      <polygon class="cls-4" points="470.07 6.66 470.07 8.4 463.75 8.4 463.75 6.66 466.05 6.66 466.05 2.19 464.61 2.19 464.61 .45 469.23 .45 469.23 2.19 467.78 2.19 467.78 6.66 470.07 6.66"/>
      <polygon class="cls-4" points="476.39 6.66 476.39 8.4 470.07 8.4 470.07 6.66 472.37 6.66 472.37 2.19 470.93 2.19 470.93 .45 475.55 .45 475.55 2.19 474.1 2.19 474.1 6.66 476.39 6.66"/>
      <polygon class="cls-4" points="482.71 6.66 482.71 8.4 476.39 8.4 476.39 6.66 478.69 6.66 478.69 2.19 477.25 2.19 477.25 .45 481.87 .45 481.87 2.19 480.42 2.19 480.42 6.66 482.71 6.66"/>
      <polygon class="cls-4" points="489.03 6.66 489.03 8.4 482.71 8.4 482.71 6.66 485.01 6.66 485.01 2.19 483.57 2.19 483.57 .45 488.19 .45 488.19 2.19 486.74 2.19 486.74 6.66 489.03 6.66"/>
      <polygon class="cls-4" points="495.35 6.66 495.35 8.4 489.03 8.4 489.03 6.66 491.33 6.66 491.33 2.19 489.89 2.19 489.89 .45 494.51 .45 494.51 2.19 493.06 2.19 493.06 6.66 495.35 6.66"/>
      <polygon class="cls-4" points="501.67 6.66 501.67 8.4 495.35 8.4 495.35 6.66 497.65 6.66 497.65 2.19 496.21 2.19 496.21 .45 500.83 .45 500.83 2.19 499.38 2.19 499.38 6.66 501.67 6.66"/>
      <polygon class="cls-4" points="507.99 6.66 507.99 8.4 501.67 8.4 501.67 6.66 503.97 6.66 503.97 2.19 502.53 2.19 502.53 .45 507.15 .45 507.15 2.19 505.7 2.19 505.7 6.66 507.99 6.66"/>
      <polygon class="cls-4" points="514.31 6.66 514.31 8.4 507.99 8.4 507.99 6.66 510.29 6.66 510.29 2.19 508.85 2.19 508.85 .45 513.47 .45 513.47 2.19 512.02 2.19 512.02 6.66 514.31 6.66"/>
      <polygon class="cls-4" points="520.63 6.66 520.63 8.4 514.31 8.4 514.31 6.66 516.61 6.66 516.61 2.19 515.17 2.19 515.17 .45 519.79 .45 519.79 2.19 518.34 2.19 518.34 6.66 520.63 6.66"/>
      <polygon class="cls-4" points="526.95 6.66 526.95 8.4 520.63 8.4 520.63 6.66 522.93 6.66 522.93 2.19 521.49 2.19 521.49 .45 526.11 .45 526.11 2.19 524.66 2.19 524.66 6.66 526.95 6.66"/>
      <polygon class="cls-4" points="533.27 6.66 533.27 8.4 526.95 8.4 526.95 6.66 529.25 6.66 529.25 2.19 527.81 2.19 527.81 .45 532.43 .45 532.43 2.19 530.98 2.19 530.98 6.66 533.27 6.66"/>
      <polygon class="cls-4" points="539.59 6.66 539.59 8.4 533.27 8.4 533.27 6.66 535.57 6.66 535.57 2.19 534.13 2.19 534.13 .45 538.75 .45 538.75 2.19 537.3 2.19 537.3 6.66 539.59 6.66"/>
      <polygon class="cls-4" points="545.91 6.66 545.91 8.4 539.59 8.4 539.59 6.66 541.89 6.66 541.89 2.19 540.45 2.19 540.45 .45 545.07 .45 545.07 2.19 543.62 2.19 543.62 6.66 545.91 6.66"/>
      <polygon class="cls-4" points="552.23 6.66 552.23 8.4 545.91 8.4 545.91 6.66 548.21 6.66 548.21 2.19 546.77 2.19 546.77 .45 551.39 .45 551.39 2.19 549.94 2.19 549.94 6.66 552.23 6.66"/>
      <polygon class="cls-4" points="558.55 6.66 558.55 8.4 552.23 8.4 552.23 6.66 554.53 6.66 554.53 2.19 553.09 2.19 553.09 .45 557.71 .45 557.71 2.19 556.26 2.19 556.26 6.66 558.55 6.66"/>
      <polygon class="cls-4" points="564.87 6.66 564.87 8.4 558.55 8.4 558.55 6.66 560.85 6.66 560.85 2.19 559.41 2.19 559.41 .45 564.03 .45 564.03 2.19 562.58 2.19 562.58 6.66 564.87 6.66"/>
      <polygon class="cls-4" points="571.19 6.66 571.19 8.4 564.87 8.4 564.87 6.66 567.17 6.66 567.17 2.19 565.73 2.19 565.73 .45 570.35 .45 570.35 2.19 568.9 2.19 568.9 6.66 571.19 6.66"/>
      <polygon class="cls-4" points="577.51 6.66 577.51 8.4 571.19 8.4 571.19 6.66 573.49 6.66 573.49 2.19 572.05 2.19 572.05 .45 576.67 .45 576.67 2.19 575.22 2.19 575.22 6.66 577.51 6.66"/>
      <polygon class="cls-4" points="583.83 6.66 583.83 8.4 577.51 8.4 577.51 6.66 579.81 6.66 579.81 2.19 578.37 2.19 578.37 .45 582.99 .45 582.99 2.19 581.54 2.19 581.54 6.66 583.83 6.66"/>
      <polygon class="cls-4" points="585.56 14.77 583.83 14.77 583.83 8.4 585.56 8.4 585.56 10.72 590.04 10.72 590.04 9.26 591.77 9.26 591.77 13.92 590.04 13.92 590.04 12.46 585.56 12.46 585.56 14.77"/>
      <polygon class="cls-4" points="585.56 21.14 583.83 21.14 583.83 14.77 585.56 14.77 585.56 17.09 590.04 17.09 590.04 15.63 591.77 15.63 591.77 20.29 590.04 20.29 590.04 18.83 585.56 18.83 585.56 21.14"/>
      <polygon class="cls-4" points="585.56 27.51 583.83 27.51 583.83 21.14 585.56 21.14 585.56 23.46 590.04 23.46 590.04 22 591.77 22 591.77 26.66 590.04 26.66 590.04 25.2 585.56 25.2 585.56 27.51"/>
      <polygon class="cls-4" points="585.56 33.88 583.83 33.88 583.83 27.51 585.56 27.51 585.56 29.83 590.04 29.83 590.04 28.37 591.77 28.37 591.77 33.03 590.04 33.03 590.04 31.58 585.56 31.58 585.56 33.88"/>
      <polygon class="cls-4" points="585.56 40.25 583.83 40.25 583.83 33.88 585.56 33.88 585.56 36.2 590.04 36.2 590.04 34.75 591.77 34.75 591.77 39.4 590.04 39.4 590.04 37.95 585.56 37.95 585.56 40.25"/>
      <polygon class="cls-4" points="585.56 46.62 583.83 46.62 583.83 40.25 585.56 40.25 585.56 42.57 590.04 42.57 590.04 41.12 591.77 41.12 591.77 45.78 590.04 45.78 590.04 44.32 585.56 44.32 585.56 46.62"/>
      <polygon class="cls-4" points="585.56 52.99 583.83 52.99 583.83 46.62 585.56 46.62 585.56 48.95 590.04 48.95 590.04 47.49 591.77 47.49 591.77 52.15 590.04 52.15 590.04 50.69 585.56 50.69 585.56 52.99"/>
      <polygon class="cls-4" points="585.56 59.36 583.83 59.36 583.83 52.99 585.56 52.99 585.56 55.32 590.04 55.32 590.04 53.86 591.77 53.86 591.77 58.52 590.04 58.52 590.04 57.06 585.56 57.06 585.56 59.36"/>
      <polygon class="cls-4" points="585.56 65.74 583.83 65.74 583.83 59.36 585.56 59.36 585.56 61.69 590.04 61.69 590.04 60.23 591.77 60.23 591.77 64.89 590.04 64.89 590.04 63.43 585.56 63.43 585.56 65.74"/>
      <polygon class="cls-4" points="585.56 72.11 583.83 72.11 583.83 65.74 585.56 65.74 585.56 68.06 590.04 68.06 590.04 66.6 591.77 66.6 591.77 71.26 590.04 71.26 590.04 69.8 585.56 69.8 585.56 72.11"/>
      <polygon class="cls-4" points="585.56 78.48 583.83 78.48 583.83 72.11 585.56 72.11 585.56 74.43 590.04 74.43 590.04 72.97 591.77 72.97 591.77 77.63 590.04 77.63 590.04 76.17 585.56 76.17 585.56 78.48"/>
      <polygon class="cls-4" points="585.56 84.85 583.83 84.85 583.83 78.48 585.56 78.48 585.56 80.8 590.04 80.8 590.04 79.34 591.77 79.34 591.77 84 590.04 84 590.04 82.54 585.56 82.54 585.56 84.85"/>
      <polygon class="cls-4" points="585.56 91.22 583.83 91.22 583.83 84.85 585.56 84.85 585.56 87.17 590.04 87.17 590.04 85.71 591.77 85.71 591.77 90.37 590.04 90.37 590.04 88.92 585.56 88.92 585.56 91.22"/>
      <polygon class="cls-4" points="585.56 97.59 583.83 97.59 583.83 91.22 585.56 91.22 585.56 93.54 590.04 93.54 590.04 92.09 591.77 92.09 591.77 96.74 590.04 96.74 590.04 95.29 585.56 95.29 585.56 97.59"/>
      <polygon class="cls-4" points="585.56 103.96 583.83 103.96 583.83 97.59 585.56 97.59 585.56 99.91 590.04 99.91 590.04 98.46 591.77 98.46 591.77 103.12 590.04 103.12 590.04 101.66 585.56 101.66 585.56 103.96"/>
      <polygon class="cls-4" points="585.56 110.33 583.83 110.33 583.83 103.96 585.56 103.96 585.56 106.29 590.04 106.29 590.04 104.83 591.77 104.83 591.77 109.49 590.04 109.49 590.04 108.03 585.56 108.03 585.56 110.33"/>
      <polygon class="cls-4" points="585.56 116.7 583.83 116.7 583.83 110.33 585.56 110.33 585.56 112.66 590.04 112.66 590.04 111.2 591.77 111.2 591.77 115.86 590.04 115.86 590.04 114.4 585.56 114.4 585.56 116.7"/>
      <polygon class="cls-4" points="585.56 123.08 583.83 123.08 583.83 116.7 585.56 116.7 585.56 119.03 590.04 119.03 590.04 117.57 591.77 117.57 591.77 122.23 590.04 122.23 590.04 120.77 585.56 120.77 585.56 123.08"/>
      <polygon class="cls-4" points="585.56 129.45 583.83 129.45 583.83 123.08 585.56 123.08 585.56 125.4 590.04 125.4 590.04 123.94 591.77 123.94 591.77 128.6 590.04 128.6 590.04 127.14 585.56 127.14 585.56 129.45"/>
      <polygon class="cls-4" points="585.56 135.82 583.83 135.82 583.83 129.45 585.56 129.45 585.56 131.77 590.04 131.77 590.04 130.31 591.77 130.31 591.77 134.97 590.04 134.97 590.04 133.51 585.56 133.51 585.56 135.82"/>
      <polygon class="cls-4" points="585.56 142.19 583.83 142.19 583.83 135.82 585.56 135.82 585.56 138.14 590.04 138.14 590.04 136.68 591.77 136.68 591.77 141.34 590.04 141.34 590.04 139.88 585.56 139.88 585.56 142.19"/>
      <polygon class="cls-4" points="585.56 148.56 583.83 148.56 583.83 142.19 585.56 142.19 585.56 144.51 590.04 144.51 590.04 143.05 591.77 143.05 591.77 147.71 590.04 147.71 590.04 146.26 585.56 146.26 585.56 148.56"/>
      <polygon class="cls-4" points="585.56 154.93 583.83 154.93 583.83 148.56 585.56 148.56 585.56 150.88 590.04 150.88 590.04 149.43 591.77 149.43 591.77 154.08 590.04 154.08 590.04 152.63 585.56 152.63 585.56 154.93"/>
      <polygon class="cls-4" points="585.56 161.3 583.83 161.3 583.83 154.93 585.56 154.93 585.56 157.25 590.04 157.25 590.04 155.8 591.77 155.8 591.77 160.46 590.04 160.46 590.04 159 585.56 159 585.56 161.3"/>
      <polygon class="cls-4" points="577.51 163.04 577.51 161.3 583.83 161.3 583.83 163.04 581.52 163.04 581.52 167.51 582.97 167.51 582.97 169.25 578.35 169.25 578.35 167.51 579.79 167.51 579.79 163.04 577.51 163.04"/>
      <polygon class="cls-4" points="571.19 163.04 571.19 161.3 577.51 161.3 577.51 163.04 575.2 163.04 575.2 167.51 576.65 167.51 576.65 169.25 572.03 169.25 572.03 167.51 573.47 167.51 573.47 163.04 571.19 163.04"/>
      <polygon class="cls-4" points="564.87 163.04 564.87 161.3 571.19 161.3 571.19 163.04 568.88 163.04 568.88 167.51 570.33 167.51 570.33 169.25 565.71 169.25 565.71 167.51 567.15 167.51 567.15 163.04 564.87 163.04"/>
      <polygon class="cls-4" points="558.55 163.04 558.55 161.3 564.87 161.3 564.87 163.04 562.56 163.04 562.56 167.51 564.01 167.51 564.01 169.25 559.39 169.25 559.39 167.51 560.83 167.51 560.83 163.04 558.55 163.04"/>
      <polygon class="cls-4" points="552.23 163.04 552.23 161.3 558.55 161.3 558.55 163.04 556.24 163.04 556.24 167.51 557.69 167.51 557.69 169.25 553.07 169.25 553.07 167.51 554.51 167.51 554.51 163.04 552.23 163.04"/>
      <polygon class="cls-4" points="545.91 163.04 545.91 161.3 552.23 161.3 552.23 163.04 549.92 163.04 549.92 167.51 551.37 167.51 551.37 169.25 546.75 169.25 546.75 167.51 548.19 167.51 548.19 163.04 545.91 163.04"/>
      <polygon class="cls-4" points="539.59 163.04 539.59 161.3 545.91 161.3 545.91 163.04 543.6 163.04 543.6 167.51 545.05 167.51 545.05 169.25 540.43 169.25 540.43 167.51 541.87 167.51 541.87 163.04 539.59 163.04"/>
      <polygon class="cls-4" points="533.27 163.04 533.27 161.3 539.59 161.3 539.59 163.04 537.28 163.04 537.28 167.51 538.73 167.51 538.73 169.25 534.11 169.25 534.11 167.51 535.55 167.51 535.55 163.04 533.27 163.04"/>
      <polygon class="cls-4" points="526.95 163.04 526.95 161.3 533.27 161.3 533.27 163.04 530.96 163.04 530.96 167.51 532.41 167.51 532.41 169.25 527.79 169.25 527.79 167.51 529.23 167.51 529.23 163.04 526.95 163.04"/>
      <polygon class="cls-4" points="520.63 163.04 520.63 161.3 526.95 161.3 526.95 163.04 524.64 163.04 524.64 167.51 526.09 167.51 526.09 169.25 521.47 169.25 521.47 167.51 522.91 167.51 522.91 163.04 520.63 163.04"/>
      <polygon class="cls-4" points="514.31 163.04 514.31 161.3 520.63 161.3 520.63 163.04 518.32 163.04 518.32 167.51 519.77 167.51 519.77 169.25 515.15 169.25 515.15 167.51 516.59 167.51 516.59 163.04 514.31 163.04"/>
      <polygon class="cls-4" points="507.99 163.04 507.99 161.3 514.31 161.3 514.31 163.04 512 163.04 512 167.51 513.45 167.51 513.45 169.25 508.83 169.25 508.83 167.51 510.27 167.51 510.27 163.04 507.99 163.04"/>
      <polygon class="cls-4" points="501.67 163.04 501.67 161.3 507.99 161.3 507.99 163.04 505.68 163.04 505.68 167.51 507.13 167.51 507.13 169.25 502.51 169.25 502.51 167.51 503.95 167.51 503.95 163.04 501.67 163.04"/>
      <polygon class="cls-4" points="495.35 163.04 495.35 161.3 501.67 161.3 501.67 163.04 499.36 163.04 499.36 167.51 500.81 167.51 500.81 169.25 496.19 169.25 496.19 167.51 497.63 167.51 497.63 163.04 495.35 163.04"/>
      <polygon class="cls-4" points="489.03 163.04 489.03 161.3 495.35 161.3 495.35 163.04 493.04 163.04 493.04 167.51 494.49 167.51 494.49 169.25 489.87 169.25 489.87 167.51 491.31 167.51 491.31 163.04 489.03 163.04"/>
      <polygon class="cls-4" points="482.71 163.04 482.71 161.3 489.03 161.3 489.03 163.04 486.72 163.04 486.72 167.51 488.17 167.51 488.17 169.25 483.55 169.25 483.55 167.51 484.99 167.51 484.99 163.04 482.71 163.04"/>
      <polygon class="cls-4" points="476.39 163.04 476.39 161.3 482.71 161.3 482.71 163.04 480.4 163.04 480.4 167.51 481.85 167.51 481.85 169.25 477.23 169.25 477.23 167.51 478.67 167.51 478.67 163.04 476.39 163.04"/>
      <polygon class="cls-4" points="470.07 163.04 470.07 161.3 476.39 161.3 476.39 163.04 474.08 163.04 474.08 167.51 475.53 167.51 475.53 169.25 470.91 169.25 470.91 167.51 472.35 167.51 472.35 163.04 470.07 163.04"/>
      <polygon class="cls-4" points="463.75 163.04 463.75 161.3 470.07 161.3 470.07 163.04 467.76 163.04 467.76 167.51 469.21 167.51 469.21 169.25 464.59 169.25 464.59 167.51 466.03 167.51 466.03 163.04 463.75 163.04"/>
      <polygon class="cls-4" points="457.43 163.04 457.43 161.3 463.75 161.3 463.75 163.04 461.44 163.04 461.44 167.51 462.89 167.51 462.89 169.25 458.27 169.25 458.27 167.51 459.71 167.51 459.71 163.04 457.43 163.04"/>
      <polygon class="cls-4" points="451.11 163.04 451.11 161.3 457.43 161.3 457.43 163.04 455.12 163.04 455.12 167.51 456.57 167.51 456.57 169.25 451.95 169.25 451.95 167.51 453.39 167.51 453.39 163.04 451.11 163.04"/>
      <polygon class="cls-4" points="444.79 163.04 444.79 161.3 451.11 161.3 451.11 163.04 448.8 163.04 448.8 167.51 450.25 167.51 450.25 169.25 445.63 169.25 445.63 167.51 447.07 167.51 447.07 163.04 444.79 163.04"/>
      <polygon class="cls-4" points="438.47 163.04 438.47 161.3 444.79 161.3 444.79 163.04 442.48 163.04 442.48 167.51 443.93 167.51 443.93 169.25 439.31 169.25 439.31 167.51 440.75 167.51 440.75 163.04 438.47 163.04"/>
      <polygon class="cls-4" points="432.15 163.04 432.15 161.3 438.47 161.3 438.47 163.04 436.16 163.04 436.16 167.51 437.61 167.51 437.61 169.25 432.99 169.25 432.99 167.51 434.43 167.51 434.43 163.04 432.15 163.04"/>
      <polygon class="cls-4" points="425.83 163.04 425.83 161.3 432.15 161.3 432.15 163.04 429.84 163.04 429.84 167.51 431.29 167.51 431.29 169.25 426.67 169.25 426.67 167.51 428.11 167.51 428.11 163.04 425.83 163.04"/>
      <polygon class="cls-4" points="419.51 163.04 419.51 161.3 425.83 161.3 425.83 163.04 423.52 163.04 423.52 167.51 424.97 167.51 424.97 169.25 420.35 169.25 420.35 167.51 421.79 167.51 421.79 163.04 419.51 163.04"/>
      <polygon class="cls-4" points="413.19 163.04 413.19 161.3 419.51 161.3 419.51 163.04 417.2 163.04 417.2 167.51 418.65 167.51 418.65 169.25 414.03 169.25 414.03 167.51 415.47 167.51 415.47 163.04 413.19 163.04"/>
      <polygon class="cls-4" points="406.87 163.04 406.87 161.3 413.19 161.3 413.19 163.04 410.88 163.04 410.88 167.51 412.33 167.51 412.33 169.25 407.71 169.25 407.71 167.51 409.15 167.51 409.15 163.04 406.87 163.04"/>
      <polygon class="cls-4" points="400.55 163.04 400.55 161.3 406.87 161.3 406.87 163.04 404.56 163.04 404.56 167.51 406.01 167.51 406.01 169.25 401.39 169.25 401.39 167.51 402.83 167.51 402.83 163.04 400.55 163.04"/>
      <polygon class="cls-4" points="394.23 163.04 394.23 161.3 400.55 161.3 400.55 163.04 398.24 163.04 398.24 167.51 399.69 167.51 399.69 169.25 395.07 169.25 395.07 167.51 396.51 167.51 396.51 163.04 394.23 163.04"/>
      <polygon class="cls-4" points="387.91 163.04 387.91 161.3 394.23 161.3 394.23 163.04 391.92 163.04 391.92 167.51 393.37 167.51 393.37 169.25 388.75 169.25 388.75 167.51 390.19 167.51 390.19 163.04 387.91 163.04"/>
      <polygon class="cls-4" points="381.59 163.04 381.59 161.3 387.91 161.3 387.91 163.04 385.6 163.04 385.6 167.51 387.05 167.51 387.05 169.25 382.43 169.25 382.43 167.51 383.87 167.51 383.87 163.04 381.59 163.04"/>
      <polygon class="cls-4" points="375.27 163.04 375.27 161.3 381.59 161.3 381.59 163.04 379.28 163.04 379.28 167.51 380.73 167.51 380.73 169.25 376.11 169.25 376.11 167.51 377.55 167.51 377.55 163.04 375.27 163.04"/>
      <polygon class="cls-4" points="368.95 163.04 368.95 161.3 375.27 161.3 375.27 163.04 372.96 163.04 372.96 167.51 374.41 167.51 374.41 169.25 369.79 169.25 369.79 167.51 371.23 167.51 371.23 163.04 368.95 163.04"/>
      <polygon class="cls-4" points="362.63 163.04 362.63 161.3 368.95 161.3 368.95 163.04 366.64 163.04 366.64 167.51 368.09 167.51 368.09 169.25 363.47 169.25 363.47 167.51 364.91 167.51 364.91 163.04 362.63 163.04"/>
      <polygon class="cls-4" points="356.31 163.04 356.31 161.3 362.63 161.3 362.63 163.04 360.32 163.04 360.32 167.51 361.77 167.51 361.77 169.25 357.15 169.25 357.15 167.51 358.59 167.51 358.59 163.04 356.31 163.04"/>
      <polygon class="cls-4" points="349.99 163.04 349.99 161.3 356.31 161.3 356.31 163.04 354 163.04 354 167.51 355.45 167.51 355.45 169.25 350.83 169.25 350.83 167.51 352.27 167.51 352.27 163.04 349.99 163.04"/>
      <polygon class="cls-4" points="343.67 163.04 343.67 161.3 349.99 161.3 349.99 163.04 347.68 163.04 347.68 167.51 349.13 167.51 349.13 169.25 344.51 169.25 344.51 167.51 345.95 167.51 345.95 163.04 343.67 163.04"/>
      <polygon class="cls-4" points="337.35 163.04 337.35 161.3 343.67 161.3 343.67 163.04 341.36 163.04 341.36 167.51 342.81 167.51 342.81 169.25 338.19 169.25 338.19 167.51 339.63 167.51 339.63 163.04 337.35 163.04"/>
      <polygon class="cls-4" points="331.03 163.04 331.03 161.3 337.35 161.3 337.35 163.04 335.04 163.04 335.04 167.51 336.49 167.51 336.49 169.25 331.87 169.25 331.87 167.51 333.31 167.51 333.31 163.04 331.03 163.04"/>
      <polygon class="cls-4" points="324.71 163.04 324.71 161.3 331.03 161.3 331.03 163.04 328.72 163.04 328.72 167.51 330.17 167.51 330.17 169.25 325.55 169.25 325.55 167.51 326.99 167.51 326.99 163.04 324.71 163.04"/>
      <polygon class="cls-4" points="318.39 163.04 318.39 161.3 324.71 161.3 324.71 163.04 322.4 163.04 322.4 167.51 323.85 167.51 323.85 169.25 319.23 169.25 319.23 167.51 320.67 167.51 320.67 163.04 318.39 163.04"/>
      <polygon class="cls-4" points="312.07 163.04 312.07 161.3 318.39 161.3 318.39 163.04 316.08 163.04 316.08 167.51 317.53 167.51 317.53 169.25 312.91 169.25 312.91 167.51 314.35 167.51 314.35 163.04 312.07 163.04"/>
      <polygon class="cls-4" points="305.75 163.04 305.75 161.3 312.07 161.3 312.07 163.04 309.76 163.04 309.76 167.51 311.21 167.51 311.21 169.25 306.59 169.25 306.59 167.51 308.03 167.51 308.03 163.04 305.75 163.04"/>
      <polygon class="cls-4" points="299.43 163.04 299.43 161.3 305.75 161.3 305.75 163.04 303.44 163.04 303.44 167.51 304.89 167.51 304.89 169.25 300.27 169.25 300.27 167.51 301.71 167.51 301.71 163.04 299.43 163.04"/>
      <polygon class="cls-4" points="293.11 163.04 293.11 161.3 299.43 161.3 299.43 163.04 297.12 163.04 297.12 167.51 298.57 167.51 298.57 169.25 293.95 169.25 293.95 167.51 295.39 167.51 295.39 163.04 293.11 163.04"/>
      <polygon class="cls-4" points="286.79 163.04 286.79 161.3 293.11 161.3 293.11 163.04 290.8 163.04 290.8 167.51 292.25 167.51 292.25 169.25 287.63 169.25 287.63 167.51 289.07 167.51 289.07 163.04 286.79 163.04"/>
      <polygon class="cls-4" points="280.47 163.04 280.47 161.3 286.79 161.3 286.79 163.04 284.48 163.04 284.48 167.51 285.93 167.51 285.93 169.25 281.31 169.25 281.31 167.51 282.75 167.51 282.75 163.04 280.47 163.04"/>
      <polygon class="cls-4" points="274.15 163.04 274.15 161.3 280.47 161.3 280.47 163.04 278.16 163.04 278.16 167.51 279.61 167.51 279.61 169.25 274.99 169.25 274.99 167.51 276.43 167.51 276.43 163.04 274.15 163.04"/>
      <polygon class="cls-4" points="267.83 163.04 267.83 161.3 274.15 161.3 274.15 163.04 271.84 163.04 271.84 167.51 273.29 167.51 273.29 169.25 268.67 169.25 268.67 167.51 270.11 167.51 270.11 163.04 267.83 163.04"/>
      <polygon class="cls-4" points="261.51 163.04 261.51 161.3 267.83 161.3 267.83 163.04 265.52 163.04 265.52 167.51 266.97 167.51 266.97 169.25 262.35 169.25 262.35 167.51 263.79 167.51 263.79 163.04 261.51 163.04"/>
      <polygon class="cls-4" points="255.19 163.04 255.19 161.3 261.51 161.3 261.51 163.04 259.2 163.04 259.2 167.51 260.65 167.51 260.65 169.25 256.03 169.25 256.03 167.51 257.47 167.51 257.47 163.04 255.19 163.04"/>
      <polygon class="cls-4" points="248.87 163.04 248.87 161.3 255.19 161.3 255.19 163.04 252.88 163.04 252.88 167.51 254.33 167.51 254.33 169.25 249.71 169.25 249.71 167.51 251.15 167.51 251.15 163.04 248.87 163.04"/>
      <polygon class="cls-4" points="242.55 163.04 242.55 161.3 248.87 161.3 248.87 163.04 246.56 163.04 246.56 167.51 248.01 167.51 248.01 169.25 243.39 169.25 243.39 167.51 244.83 167.51 244.83 163.04 242.55 163.04"/>
      <polygon class="cls-4" points="236.23 163.04 236.23 161.3 242.55 161.3 242.55 163.04 240.24 163.04 240.24 167.51 241.69 167.51 241.69 169.25 237.07 169.25 237.07 167.51 238.51 167.51 238.51 163.04 236.23 163.04"/>
      <polygon class="cls-4" points="229.91 163.04 229.91 161.3 236.23 161.3 236.23 163.04 233.92 163.04 233.92 167.51 235.37 167.51 235.37 169.25 230.75 169.25 230.75 167.51 232.19 167.51 232.19 163.04 229.91 163.04"/>
      <polygon class="cls-4" points="223.59 163.04 223.59 161.3 229.91 161.3 229.91 163.04 227.6 163.04 227.6 167.51 229.05 167.51 229.05 169.25 224.43 169.25 224.43 167.51 225.87 167.51 225.87 163.04 223.59 163.04"/>
      <polygon class="cls-4" points="217.27 163.04 217.27 161.3 223.59 161.3 223.59 163.04 221.28 163.04 221.28 167.51 222.73 167.51 222.73 169.25 218.11 169.25 218.11 167.51 219.55 167.51 219.55 163.04 217.27 163.04"/>
      <polygon class="cls-4" points="210.95 163.04 210.95 161.3 217.27 161.3 217.27 163.04 214.96 163.04 214.96 167.51 216.41 167.51 216.41 169.25 211.79 169.25 211.79 167.51 213.23 167.51 213.23 163.04 210.95 163.04"/>
      <polygon class="cls-4" points="204.63 163.04 204.63 161.3 210.95 161.3 210.95 163.04 208.64 163.04 208.64 167.51 210.09 167.51 210.09 169.25 205.47 169.25 205.47 167.51 206.91 167.51 206.91 163.04 204.63 163.04"/>
      <polygon class="cls-4" points="198.31 163.04 198.31 161.3 204.63 161.3 204.63 163.04 202.32 163.04 202.32 167.51 203.77 167.51 203.77 169.25 199.15 169.25 199.15 167.51 200.59 167.51 200.59 163.04 198.31 163.04"/>
      <polygon class="cls-4" points="191.99 163.04 191.99 161.3 198.31 161.3 198.31 163.04 196 163.04 196 167.51 197.45 167.51 197.45 169.25 192.83 169.25 192.83 167.51 194.27 167.51 194.27 163.04 191.99 163.04"/>
      <polygon class="cls-4" points="185.67 163.04 185.67 161.3 191.99 161.3 191.99 163.04 189.68 163.04 189.68 167.51 191.13 167.51 191.13 169.25 186.51 169.25 186.51 167.51 187.95 167.51 187.95 163.04 185.67 163.04"/>
      <polygon class="cls-4" points="179.35 163.04 179.35 161.3 185.67 161.3 185.67 163.04 183.36 163.04 183.36 167.51 184.81 167.51 184.81 169.25 180.19 169.25 180.19 167.51 181.63 167.51 181.63 163.04 179.35 163.04"/>
      <polygon class="cls-4" points="173.03 163.04 173.03 161.3 179.35 161.3 179.35 163.04 177.04 163.04 177.04 167.51 178.49 167.51 178.49 169.25 173.87 169.25 173.87 167.51 175.31 167.51 175.31 163.04 173.03 163.04"/>
      <polygon class="cls-4" points="166.71 163.04 166.71 161.3 173.03 161.3 173.03 163.04 170.72 163.04 170.72 167.51 172.17 167.51 172.17 169.25 167.55 169.25 167.55 167.51 168.99 167.51 168.99 163.04 166.71 163.04"/>
      <polygon class="cls-4" points="160.39 163.04 160.39 161.3 166.71 161.3 166.71 163.04 164.4 163.04 164.4 167.51 165.85 167.51 165.85 169.25 161.23 169.25 161.23 167.51 162.67 167.51 162.67 163.04 160.39 163.04"/>
      <polygon class="cls-4" points="154.07 163.04 154.07 161.3 160.39 161.3 160.39 163.04 158.08 163.04 158.08 167.51 159.53 167.51 159.53 169.25 154.91 169.25 154.91 167.51 156.35 167.51 156.35 163.04 154.07 163.04"/>
      <polygon class="cls-4" points="147.75 163.04 147.75 161.3 154.07 161.3 154.07 163.04 151.76 163.04 151.76 167.51 153.21 167.51 153.21 169.25 148.59 169.25 148.59 167.51 150.03 167.51 150.03 163.04 147.75 163.04"/>
      <polygon class="cls-4" points="141.43 163.04 141.43 161.3 147.75 161.3 147.75 163.04 145.44 163.04 145.44 167.51 146.89 167.51 146.89 169.25 142.27 169.25 142.27 167.51 143.71 167.51 143.71 163.04 141.43 163.04"/>
      <polygon class="cls-4" points="135.11 163.04 135.11 161.3 141.43 161.3 141.43 163.04 139.12 163.04 139.12 167.51 140.57 167.51 140.57 169.25 135.95 169.25 135.95 167.51 137.39 167.51 137.39 163.04 135.11 163.04"/>
      <polygon class="cls-4" points="128.79 163.04 128.79 161.3 135.11 161.3 135.11 163.04 132.8 163.04 132.8 167.51 134.25 167.51 134.25 169.25 129.63 169.25 129.63 167.51 131.07 167.51 131.07 163.04 128.79 163.04"/>
      <polygon class="cls-4" points="122.47 163.04 122.47 161.3 128.79 161.3 128.79 163.04 126.48 163.04 126.48 167.51 127.93 167.51 127.93 169.25 123.31 169.25 123.31 167.51 124.75 167.51 124.75 163.04 122.47 163.04"/>
      <polygon class="cls-4" points="116.15 163.04 116.15 161.3 122.47 161.3 122.47 163.04 120.16 163.04 120.16 167.51 121.61 167.51 121.61 169.25 116.99 169.25 116.99 167.51 118.43 167.51 118.43 163.04 116.15 163.04"/>
      <polygon class="cls-4" points="109.83 163.04 109.83 161.3 116.15 161.3 116.15 163.04 113.84 163.04 113.84 167.51 115.29 167.51 115.29 169.25 110.67 169.25 110.67 167.51 112.11 167.51 112.11 163.04 109.83 163.04"/>
      <polygon class="cls-4" points="103.51 163.04 103.51 161.3 109.83 161.3 109.83 163.04 107.52 163.04 107.52 167.51 108.97 167.51 108.97 169.25 104.35 169.25 104.35 167.51 105.79 167.51 105.79 163.04 103.51 163.04"/>
      <polygon class="cls-4" points="97.19 163.04 97.19 161.3 103.51 161.3 103.51 163.04 101.2 163.04 101.2 167.51 102.65 167.51 102.65 169.25 98.03 169.25 98.03 167.51 99.47 167.51 99.47 163.04 97.19 163.04"/>
      <polygon class="cls-4" points="90.87 163.04 90.87 161.3 97.19 161.3 97.19 163.04 94.88 163.04 94.88 167.51 96.33 167.51 96.33 169.25 91.71 169.25 91.71 167.51 93.15 167.51 93.15 163.04 90.87 163.04"/>
      <polygon class="cls-4" points="84.55 163.04 84.55 161.3 90.87 161.3 90.87 163.04 88.56 163.04 88.56 167.51 90.01 167.51 90.01 169.25 85.39 169.25 85.39 167.51 86.83 167.51 86.83 163.04 84.55 163.04"/>
      <polygon class="cls-4" points="78.23 163.04 78.23 161.3 84.55 161.3 84.55 163.04 82.24 163.04 82.24 167.51 83.69 167.51 83.69 169.25 79.07 169.25 79.07 167.51 80.51 167.51 80.51 163.04 78.23 163.04"/>
      <polygon class="cls-4" points="71.91 163.04 71.91 161.3 78.23 161.3 78.23 163.04 75.92 163.04 75.92 167.51 77.37 167.51 77.37 169.25 72.75 169.25 72.75 167.51 74.2 167.51 74.2 163.04 71.91 163.04"/>
      <polygon class="cls-4" points="65.59 163.04 65.59 161.3 71.91 161.3 71.91 163.04 69.6 163.04 69.6 167.51 71.05 167.51 71.05 169.25 66.43 169.25 66.43 167.51 67.88 167.51 67.88 163.04 65.59 163.04"/>
      <polygon class="cls-4" points="59.27 163.04 59.27 161.3 65.59 161.3 65.59 163.04 63.28 163.04 63.28 167.51 64.73 167.51 64.73 169.25 60.11 169.25 60.11 167.51 61.56 167.51 61.56 163.04 59.27 163.04"/>
      <polygon class="cls-4" points="52.95 163.04 52.95 161.3 59.27 161.3 59.27 163.04 56.96 163.04 56.96 167.51 58.41 167.51 58.41 169.25 53.79 169.25 53.79 167.51 55.24 167.51 55.24 163.04 52.95 163.04"/>
      <polygon class="cls-4" points="46.63 163.04 46.63 161.3 52.95 161.3 52.95 163.04 50.64 163.04 50.64 167.51 52.09 167.51 52.09 169.25 47.47 169.25 47.47 167.51 48.92 167.51 48.92 163.04 46.63 163.04"/>
      <polygon class="cls-4" points="40.31 163.04 40.31 161.3 46.63 161.3 46.63 163.04 44.32 163.04 44.32 167.51 45.77 167.51 45.77 169.25 41.15 169.25 41.15 167.51 42.6 167.51 42.6 163.04 40.31 163.04"/>
      <polygon class="cls-4" points="33.99 163.04 33.99 161.3 40.31 161.3 40.31 163.04 38 163.04 38 167.51 39.45 167.51 39.45 169.25 34.83 169.25 34.83 167.51 36.28 167.51 36.28 163.04 33.99 163.04"/>
      <polygon class="cls-4" points="27.67 163.04 27.67 161.3 33.99 161.3 33.99 163.04 31.68 163.04 31.68 167.51 33.13 167.51 33.13 169.25 28.51 169.25 28.51 167.51 29.96 167.51 29.96 163.04 27.67 163.04"/>
      <polygon class="cls-4" points="21.35 163.04 21.35 161.3 27.67 161.3 27.67 163.04 25.36 163.04 25.36 167.51 26.81 167.51 26.81 169.25 22.19 169.25 22.19 167.51 23.64 167.51 23.64 163.04 21.35 163.04"/>
      <polygon class="cls-4" points="15.03 163.04 15.03 161.3 21.35 161.3 21.35 163.04 19.04 163.04 19.04 167.51 20.49 167.51 20.49 169.25 15.87 169.25 15.87 167.51 17.32 167.51 17.32 163.04 15.03 163.04"/>
      <polygon class="cls-4" points="8.71 163.04 8.71 161.3 15.03 161.3 15.03 163.04 12.72 163.04 12.72 167.51 14.17 167.51 14.17 169.25 9.55 169.25 9.55 167.51 11 167.51 11 163.04 8.71 163.04"/>
      <g class="cls-8">
        <polygon class="cls-4" points="6.97 .45 8.71 .45 8.71 8.4 6.97 8.4 6.97 5.5 2.5 5.5 2.5 7.32 .76 7.32 .76 1.51 2.5 1.51 2.5 3.33 6.97 3.33 6.97 .45"/>
      </g>
      <g class="cls-6">
        <polygon class="cls-4" points="8.71 6.66 8.71 8.4 .76 8.4 .76 6.66 3.66 6.66 3.66 2.19 1.84 2.19 1.84 .45 7.65 .45 7.65 2.19 5.84 2.19 5.84 6.66 8.71 6.66"/>
      </g>
      <g class="cls-1">
        <polygon class="cls-4" points="591.77 6.66 591.77 8.4 583.83 8.4 583.83 6.66 586.73 6.66 586.73 2.19 584.91 2.19 584.91 .45 590.72 .45 590.72 2.19 588.9 2.19 588.9 6.66 591.77 6.66"/>
      </g>
      <g class="cls-9">
        <polygon class="cls-4" points="585.56 8.4 583.83 8.4 583.83 .45 585.56 .45 585.56 3.35 590.04 3.35 590.04 1.53 591.77 1.53 591.77 7.34 590.04 7.34 590.04 5.52 585.56 5.52 585.56 8.4"/>
      </g>
      <g class="cls-7">
        <polygon class="cls-4" points="585.56 169.25 583.83 169.25 583.83 161.3 585.56 161.3 585.56 164.2 590.04 164.2 590.04 162.38 591.77 162.38 591.77 168.19 590.04 168.19 590.04 166.37 585.56 166.37 585.56 169.25"/>
      </g>
      <g class="cls-10">
        <polygon class="cls-4" points="583.83 163.04 583.83 161.3 591.77 161.3 591.77 163.04 588.87 163.04 588.87 167.51 590.69 167.51 590.69 169.25 584.88 169.25 584.88 167.51 586.7 167.51 586.7 163.04 583.83 163.04"/>
      </g>
      <g class="cls-2">
        <polygon class="cls-4" points=".76 163.04 .76 161.3 8.71 161.3 8.71 163.04 5.81 163.04 5.81 167.51 7.63 167.51 7.63 169.25 1.82 169.25 1.82 167.51 3.64 167.51 3.64 163.04 .76 163.04"/>
      </g>
      <g class="cls-5">
        <polygon class="cls-4" points="6.97 161.3 8.71 161.3 8.71 169.25 6.97 169.25 6.97 166.35 2.5 166.35 2.5 168.17 .76 168.17 .76 162.36 2.5 162.36 2.5 164.18 6.97 164.18 6.97 161.3"/>
      </g>
    </g>
  </g>
</svg>